#!OML:ASF E:\acrobat2\Project_11_07_03\Capture day 1\Session 1\Acrobat.ASF
:FULLY-SPECIFIED
:DEGREES
113
root 8.3089 18.0636 -0.281336 2.00742 -57.3413 2.3825
lowerback -7.0507 1.16901 1.44043
upperback -0.562277 1.48411 -1.45587
thorax 3.44793 0.764184 -2.16707
lowerneck -0.0756238 -0.963103 -1.96453
upperneck 6.95748 -1.57565 4.53431
head 2.27105 -0.745954 1.75465
rclavicle 8.43934e-014 2.94201e-014
rhumerus -39.6623 -10.9075 -81.1646
rradius 26.4807
rwrist 2.31193
rhand -9.48938 -40.0745
rfingers 7.12502
rthumb 16.4753 -69.395
lclavicle 8.43934e-014 2.94201e-014
lhumerus -32.688 -1.56869 83.7351
lradius 23.4216
lwrist 10.7627
lhand -3.03874 -13.5754
lfingers 7.12502
lthumb 22.6768 15.1123
rfemur 10.3048 13.6505 17.7307
rtibia -3.74225
rfoot -22.0367 -29.7129
rtoes -3.38937
lfemur 2.00236 -5.40569 -9.91803
ltibia -2.61824
lfoot -9.58337 5.19702
ltoes 28.0025
114
root 8.30883 18.0629 -0.283293 2.0573 -57.3323 2.33722
lowerback -7.08453 1.18234 1.47608
upperback -0.515795 1.49991 -1.47142
thorax 3.51717 0.773858 -2.20065
lowerneck -0.139454 -0.966001 -1.84326
upperneck 6.95232 -1.57409 4.42628
head 2.27734 -0.743651 1.69774
rclavicle -3.29563e-014 5.1684e-015
rhumerus -39.5486 -11.181 -81.0747
rradius 26.3647
rwrist 2.59896
rhand -9.35886 -39.926
rfingers 7.12502
rthumb 16.601 -69.236
lclavicle -3.29563e-014 5.1684e-015
lhumerus -32.5232 -1.59377 83.6617
lradius 23.3835
lwrist 10.4062
lhand -3.00015 -13.7867
lfingers 7.12502
lthumb 22.7138 14.8965
rfemur 10.2892 13.7178 17.7895
rtibia -3.74567
rfoot -21.8125 -29.898
rtoes -4.29899
lfemur 1.97983 -5.45347 -9.87105
ltibia -2.61077
lfoot -9.63428 5.17279
ltoes 28.3508
115
root 8.30946 18.063 -0.283821 1.998 -57.3127 2.40666
lowerback -7.05927 1.1568 1.43703
upperback -0.501184 1.46967 -1.47903
thorax 3.51583 0.758447 -2.18993
lowerneck -0.0941434 -0.915998 -1.88988
upperneck 6.8792 -1.50838 4.50509
head 2.24461 -0.711287 1.73256
rclavicle 4.84406e-014 1.39149e-015
rhumerus -39.4758 -11.2103 -81.0794
rradius 26.2969
rwrist 2.6747
rhand -9.31426 -39.9562
rfingers 7.12502
rthumb 16.6439 -69.2626
lclavicle 4.84406e-014 1.39149e-015
lhumerus -32.4458 -1.2713 83.5362
lradius 23.3476
lwrist 9.87718
lhand -3.03871 -14.0208
lfingers 7.12502
lthumb 22.6768 14.6668
rfemur 10.2959 13.7664 17.7647
rtibia -3.77713
rfoot -21.6464 -30.0485
rtoes -5.19893
lfemur 1.96564 -5.40826 -9.90727
ltibia -2.60305
lfoot -9.65995 5.09367
ltoes 29.0034
116
root 8.30937 18.0634 -0.283439 1.91723 -57.2862 2.53045
lowerback -7.02537 1.14423 1.34491
upperback -0.525565 1.45993 -1.47475
thorax 3.46864 0.751449 -2.1354
lowerneck -0.00983633 -1.04979 -1.86479
upperneck 6.72704 -1.67943 4.45611
head 2.18445 -0.798822 1.70755
rclavicle 4.28396e-015 -4.57205e-015
rhumerus -39.5055 -11.1381 -81.0418
rradius 26.278
rwrist 2.61687
rhand -9.27537 -39.9718
rfingers 7.12502
rthumb 16.6814 -69.275
lclavicle 4.28396e-015 -4.57205e-015
lhumerus -32.4924 -1.32249 83.6031
lradius 23.5556
lwrist 10.1035
lhand -2.8987 -13.8032
lfingers 7.12502
lthumb 22.8112 14.8679
rfemur 10.2606 13.6525 17.6507
rtibia -3.76928
rfoot -21.5817 -30.0017
rtoes -5.55171
lfemur 1.90494 -5.19319 -9.97381
ltibia -2.55487
lfoot -9.52347 5.02597
ltoes 28.3917
117
root 8.30905 18.0627 -0.28211 1.95598 -57.2948 2.52412
lowerback -6.99324 1.19216 1.37831
upperback -0.555592 1.52166 -1.49232
thorax 3.42391 0.782056 -2.167
lowerneck -0.260959 -0.829261 -2.11949
upperneck 7.16515 -1.41087 4.71456
head 2.37199 -0.660045 1.84694
rclavicle 4.67113e-014 1.21259e-014
rhumerus -39.5306 -11.3815 -80.8866
rradius 26.1609
rwrist 2.76072
rhand -9.21921 -39.8552
rfingers 7.12502
rthumb 16.7354 -69.1539
lclavicle 4.67113e-014 1.21259e-014
lhumerus -32.4897 -1.80116 83.7789
lradius 23.7248
lwrist 10.6692
lhand -2.70435 -13.5319
lfingers 7.12502
lthumb 22.9977 15.1161
rfemur 10.2024 13.5334 17.6058
rtibia -3.74772
rfoot -21.4106 -29.982
rtoes -5.99355
lfemur 1.86349 -5.07772 -9.9582
ltibia -2.53634
lfoot -9.33667 5.03732
ltoes 27.0255
118
root 8.30871 18.0611 -0.27915 2.07591 -57.31 2.38902
lowerback -6.95519 1.22619 1.52009
upperback -0.565068 1.55666 -1.50037
thorax 3.39859 0.801379 -2.2524
lowerneck -0.0718277 -1.12601 -1.87736
upperneck 6.80081 -1.7848 4.47204
head 2.22412 -0.850021 1.7134
rclavicle 1.3166e-013 5.1684e-015
rhumerus -39.4749 -11.7526 -80.7228
rradius 25.9583
rwrist 3.05538
rhand -9.12862 -39.7104
rfingers 7.12502
rthumb 16.8226 -69.0017
lclavicle 1.3166e-013 5.1684e-015
lhumerus -32.441 -2.10855 83.8715
lradius 23.7496
lwrist 10.7882
lhand -2.62386 -13.6198
lfingers 7.12502
lthumb 23.0749 15.0186
rfemur 10.1931 13.5191 17.6931
rtibia -3.7202
rfoot -21.3109 -30.0594
rtoes -6.52415
lfemur 1.88282 -5.08465 -9.87711
ltibia -2.56136
lfoot -9.2034 5.0816
ltoes 26.1737
